HIERARCHY
ROOT Hips
{
	OFFSET -14.64140 90.27770 -84.91600
	CHANNELS 6 Xposition Yposition Zposition Zrotation Xrotation Yrotation
	JOINT Spine
	{
		OFFSET 0.00000 13.20850 -1.60436
		CHANNELS 3 Zrotation Xrotation Yrotation
		JOINT Spine1
		{
			OFFSET 0.00000 8.61716 0.00000
			CHANNELS 3 Zrotation Xrotation Yrotation
			JOINT Spine2
			{
				OFFSET 0.00000 8.61717 0.00000
				CHANNELS 3 Zrotation Xrotation Yrotation
				JOINT Spine3
				{
					OFFSET 0.00000 8.61717 0.00000
					CHANNELS 3 Zrotation Xrotation Yrotation
					JOINT Neck
					{
						OFFSET 0.00000 11.07920 1.10792
						CHANNELS 3 Zrotation Xrotation Yrotation
						JOINT Neck1
						{
							OFFSET 0.00000 7.08032 0.00000
							CHANNELS 3 Zrotation Xrotation Yrotation
							JOINT Head
							{
								OFFSET 0.00000 7.08031 0.00000
								CHANNELS 3 Zrotation Xrotation Yrotation
								End site
								{
									OFFSET 0.00000 0.00000 0.00000
								}
							}
						}
					}
					JOINT RightShoulder
					{
						OFFSET -0.01000 7.91373 5.19711
						CHANNELS 3 Zrotation Xrotation Yrotation
						JOINT RightArm
						{
							OFFSET -18.41580 0.00000 0.00000
							CHANNELS 3 Zrotation Xrotation Yrotation
							JOINT RightForeArm
							{
								OFFSET -29.11090 0.00000 0.00000
								CHANNELS 3 Zrotation Xrotation Yrotation
								JOINT RightHand
								{
									OFFSET -24.65040 0.00000 0.00000
									CHANNELS 3 Zrotation Xrotation Yrotation
									JOINT RightHandThumb1
									{
										OFFSET -5.35114 -0.85590 3.97906
										CHANNELS 3 Zrotation Xrotation Yrotation
										JOINT RightHandThumb2
										{
											OFFSET -4.52789 0.00000 0.00000
											CHANNELS 3 Zrotation Xrotation Yrotation
											JOINT RightHandThumb3
											{
												OFFSET -2.46976 0.00000 0.00000
												CHANNELS 3 Zrotation Xrotation Yrotation
												End site
												{
													OFFSET 0.00000 0.00000 0.00000
												}
											}
										}
									}
									JOINT RightHandIndex1
									{
										OFFSET -14.26970 0.00000 2.88139
										CHANNELS 3 Zrotation Xrotation Yrotation
										JOINT RightHandIndex2
										{
											OFFSET -5.48836 0.00000 0.00000
											CHANNELS 3 Zrotation Xrotation Yrotation
											JOINT RightHandIndex3
											{
												OFFSET -3.01859 0.00000 0.00000
												CHANNELS 3 Zrotation Xrotation Yrotation
												End site
												{
													OFFSET 0.00000 0.00000 0.00000
												}
											}
										}
									}
									JOINT RightHandMiddle1
									{
										OFFSET -14.26970 0.00000 -0.09147
										CHANNELS 3 Zrotation Xrotation Yrotation
										JOINT RightHandMiddle2
										{
											OFFSET -6.17441 0.00000 0.00000
											CHANNELS 3 Zrotation Xrotation Yrotation
											JOINT RightHandMiddle3
											{
												OFFSET -3.56743 0.00000 0.00000
												CHANNELS 3 Zrotation Xrotation Yrotation
												End site
												{
													OFFSET 0.00000 0.00000 0.00000
												}
											}
										}
									}
									JOINT RightHandRing1
									{
										OFFSET -12.69180 0.00000 -3.06433
										CHANNELS 3 Zrotation Xrotation Yrotation
										JOINT RightHandRing2
										{
											OFFSET -5.62556 0.00000 0.00000
											CHANNELS 3 Zrotation Xrotation Yrotation
											JOINT RightHandRing3
											{
												OFFSET -3.56744 0.00000 0.00000
												CHANNELS 3 Zrotation Xrotation Yrotation
												End site
												{
													OFFSET 0.00000 0.00000 0.00000
												}
											}
										}
									}
									JOINT RightHandPinky1
									{
										OFFSET -11.11390 0.00000 -6.03719
										CHANNELS 3 Zrotation Xrotation Yrotation
										JOINT RightHandPinky2
										{
											OFFSET -4.52789 0.00000 0.00000
											CHANNELS 3 Zrotation Xrotation Yrotation
											JOINT RightHandPinky3
											{
												OFFSET -2.46976 0.00000 0.00000
												CHANNELS 3 Zrotation Xrotation Yrotation
												End site
												{
													OFFSET 0.00000 0.00000 0.00000
												}
											}
										}
									}
								}
							}
						}
					}
					JOINT LeftShoulder
					{
						OFFSET 0.01000 7.91373 5.19711
						CHANNELS 3 Zrotation Xrotation Yrotation
						JOINT LeftArm
						{
							OFFSET 18.41580 0.00000 0.00000
							CHANNELS 3 Zrotation Xrotation Yrotation
							JOINT LeftForeArm
							{
								OFFSET 29.11090 0.00000 0.00000
								CHANNELS 3 Zrotation Xrotation Yrotation
								JOINT LeftHand
								{
									OFFSET 24.65040 0.00000 0.00000
									CHANNELS 3 Zrotation Xrotation Yrotation
									JOINT LeftHandThumb1
									{
										OFFSET 5.35114 -0.85590 3.97906
										CHANNELS 3 Zrotation Xrotation Yrotation
										JOINT LeftHandThumb2
										{
											OFFSET 4.52789 0.00000 0.00000
											CHANNELS 3 Zrotation Xrotation Yrotation
											JOINT LeftHandThumb3
											{
												OFFSET 2.46977 0.00000 0.00000
												CHANNELS 3 Zrotation Xrotation Yrotation
												End site
												{
													OFFSET 0.00000 0.00000 0.00000
												}
											}
										}
									}
									JOINT LeftHandIndex1
									{
										OFFSET 14.26970 0.00000 2.88139
										CHANNELS 3 Zrotation Xrotation Yrotation
										JOINT LeftHandIndex2
										{
											OFFSET 5.48836 0.00000 0.00000
											CHANNELS 3 Zrotation Xrotation Yrotation
											JOINT LeftHandIndex3
											{
												OFFSET 3.01859 0.00000 0.00000
												CHANNELS 3 Zrotation Xrotation Yrotation
												End site
												{
													OFFSET 0.00000 0.00000 0.00000
												}
											}
										}
									}
									JOINT LeftHandMiddle1
									{
										OFFSET 14.26970 0.00000 -0.09147
										CHANNELS 3 Zrotation Xrotation Yrotation
										JOINT LeftHandMiddle2
										{
											OFFSET 6.17440 0.00000 0.00000
											CHANNELS 3 Zrotation Xrotation Yrotation
											JOINT LeftHandMiddle3
											{
												OFFSET 3.56744 0.00000 0.00000
												CHANNELS 3 Zrotation Xrotation Yrotation
												End site
												{
													OFFSET 0.00000 0.00000 0.00000
												}
											}
										}
									}
									JOINT LeftHandRing1
									{
										OFFSET 12.69180 0.00000 -3.06433
										CHANNELS 3 Zrotation Xrotation Yrotation
										JOINT LeftHandRing2
										{
											OFFSET 5.62556 0.00000 0.00000
											CHANNELS 3 Zrotation Xrotation Yrotation
											JOINT LeftHandRing3
											{
												OFFSET 3.56744 0.00000 0.00000
												CHANNELS 3 Zrotation Xrotation Yrotation
												End site
												{
													OFFSET 0.00000 0.00000 0.00000
												}
											}
										}
									}
									JOINT LeftHandPinky1
									{
										OFFSET 11.11390 0.00000 -6.03719
										CHANNELS 3 Zrotation Xrotation Yrotation
										JOINT LeftHandPinky2
										{
											OFFSET 4.52789 0.00000 0.00000
											CHANNELS 3 Zrotation Xrotation Yrotation
											JOINT LeftHandPinky3
											{
												OFFSET 2.46976 0.00000 0.00000
												CHANNELS 3 Zrotation Xrotation Yrotation
												End site
												{
													OFFSET 0.00000 0.00000 0.00000
												}
											}
										}
									}
								}
							}
						}
					}
					JOINT pCube4
					{
						OFFSET 0.00000 10.91090 1.10792
						CHANNELS 3 Zrotation Xrotation Yrotation
						End site
						{
							OFFSET 0.00000 0.00000 0.00000
						}
					}
				}
			}
		}
	}
	JOINT RightUpLeg
	{
		OFFSET -9.98441 0.00000 0.00000
		CHANNELS 3 Zrotation Xrotation Yrotation
		JOINT RightLeg
		{
			OFFSET 0.00000 -42.11790 0.00000
			CHANNELS 3 Zrotation Xrotation Yrotation
			JOINT RightFoot
			{
				OFFSET 0.00000 -45.00020 -0.00001
				CHANNELS 3 Zrotation Xrotation Yrotation
				JOINT RightForeFoot
				{
					OFFSET 0.00000 -3.74820 0.00000
					CHANNELS 3 Zrotation Xrotation Yrotation
					JOINT RightToeBase
					{
						OFFSET 0.00000 0.06325 14.43120
						CHANNELS 3 Zrotation Xrotation Yrotation
						End site
						{
							OFFSET 0.00000 0.00000 0.00000
						}
					}
				}
			}
		}
	}
	JOINT LeftUpLeg
	{
		OFFSET 9.98441 0.00000 0.00000
		CHANNELS 3 Zrotation Xrotation Yrotation
		JOINT LeftLeg
		{
			OFFSET 0.00000 -42.11800 0.00000
			CHANNELS 3 Zrotation Xrotation Yrotation
			JOINT LeftFoot
			{
				OFFSET 0.00000 -45.00070 0.00000
				CHANNELS 3 Zrotation Xrotation Yrotation
				JOINT LeftForeFoot
				{
					OFFSET 0.00000 -3.74824 0.00000
					CHANNELS 3 Zrotation Xrotation Yrotation
					JOINT LeftToeBase
					{
						OFFSET 0.00000 0.06325 14.43110
						CHANNELS 3 Zrotation Xrotation Yrotation
						End site
						{
							OFFSET 0.00000 0.00000 0.00000
						}
					}
				}
			}
		}
	}
}
MOTION
Frames: 4
Frame Time: 0.050000
-0.048544573648632364 -0.012396520459516768 -0.01294901562158022 -0.032554692482757656 0.04692868072490935 0.01788817071959948 -3.300074982990219 -0.15224273857203469 -0.8411957858016844 -1.0150937266356221 3.766817217746727 0.43816505908329795 -1.3190367778667895 -2.0073932515690696 -0.07499457570882913 -0.258616091036337 0.3241134262702768 -0.612145763488219 0.2828817942362275 12.31365266361259 -0.3352129098258566 0.12339240767963955 -1.1646443508142088 -2.9054301891078738 0.4627718025491806 -17.335493136273865 -0.2976220680804038 -5.333854039085607 1.9549037410628887 -14.715719801188113 71.90215832505245 30.879747157396945 11.285318738177843 1.3758249819723327 3.611408516922242 91.22228005547345 17.25361719819132 -0.656473999193804 -4.373069592364836 4.548291947315232 -0.13615063466866553 -1.5827183794216917 0.046099261360299335 -0.04761826852168637 -56.20991527880412 -0.005764086320718191 -0.005127211546309412 -56.252975465355725 -38.804412039434794 -0.03748195649015896 -0.0010609151090962348 -0.04684731500694177 0.04046899112913915 -0.045870617806616665 0.013645572654137765 0.011838524786113806 -0.03684633920292881 -36.66229474512081 -0.022282314078352867 -0.007235767321697168 0.04659089981058648 -0.03597183779541611 0.015424518325836554 0.010417867583108123 0.04052871660363685 -0.0017494951156761195 -19.73156708009223 -0.0062977508329789995 -0.043192898862829725 -0.014814181289459407 -0.000823628472061534 0.004327302565156928 0.00022078387614515318 0.0015762031461589853 -0.010413369130419946 24.071536529977184 -0.03100137147589008 0.01596632111463803 28.84814096501641 0.04939304245517648 -0.04285034376617829 28.86241560505844 -0.04091968443958964 -0.012501815827269263 4.915951513598605 1.1764450251819087 13.179673659386735 -74.05564647313841 30.66599128766053 -3.6443984314258837 1.410231624945619 -8.086481730731347 -40.55291476227927 -15.676703104860904 -2.393314385114627 5.545538189334157 -0.5156009231128899 0.062047337782335565 -8.142165877225946 0.026600741021528956 0.003070799247334203 44.5644975193917 -0.0054901732778974855 0.024234879924611576 44.51846191308146 12.491621962107564 0.019197649454086554 -0.010234930239355674 0.020565440202081932 0.01391190243676374 0.042793256255304515 0.026047525475290968 0.002430326658724826 -0.0027896578213744304 11.08624520864615 0.039185598559441856 0.02404377246666349 -0.04275240594461752 0.0027626973105612223 -0.03002161472404169 0.022513434587943807 0.03550477025797858 -0.027783813255130786 4.782317993261886 0.035152569865061545 0.04140725426278994 0.004471013200205198 0.010998839957442762 -0.02103480142026694 0.017049743613609555 -0.011373351034158269 -0.017004678354789318 -5.598104669070906 -0.04390826859181401 0.03675421394912808 -6.727347031957538 0.020788698260059545 0.023507071621627622 -6.715093096583922 -0.014065709152814075 0.027937672990125017 -0.04428755692832884 -0.036456558850983124 0.010272521651444858 8.02232205308289 3.5070109075194975 -19.203172045791103 -0.04712358184959859 10.426919464550659 -0.004170795318167924 -5.651239911506286 -15.626744125332117 3.1645014747290445 -0.00816768295405702 0.006412766668067325 0.02856481467957652 -0.03138614677728663 4.709859938890334 -0.0015468377173284906 12.45889889229458 -8.223291604600753 6.909504004802674 0.005344128786006434 46.35404855200622 -0.03666327836871992 -4.276853542889892 -14.794608477262939 -3.8269691957806384 -0.016308662198860627 0.03992858039755774 0.009242934336421876 -0.030051836319086922 -10.731709090476352 0.026788370066905716 
-0.00943310282812203 0.030585422326419337 -0.02990018623238416 -0.01530858596552914 0.031620769052813434 0.005058014266292668 -3.108213630215858 -0.16807959521233073 -0.8225122220707123 -1.032929072610813 3.7408738066196197 0.40216838087053197 -1.3057860395434384 -1.9123133904211371 -0.07182447865831353 -0.1435088445956082 0.3298729502780362 -0.6794372439798972 0.340949910757821 12.08500049948414 -0.654188777010399 0.1358821706389428 -1.247329089633798 -3.834010646263249 0.6038273028405359 -17.325105052033532 -0.37292036283642727 -5.298698798768789 1.98072244175204 -14.650976273544938 70.83377454497027 31.360195178677753 11.80002340665423 2.0147720768583857 3.5177243724812106 91.41240961862077 16.636908163098486 -0.6455743398027286 -4.143943985859342 4.487476204661513 -0.12367405168085778 -1.6279072120959677 0.011142451589781777 0.031859194416358275 -56.25391154069298 2.8362043650240652e-05 -0.025345409111342327 -56.20292284273206 -38.74077945810689 -0.0441201870090626 0.0006033016740816331 -0.04856732907711264 -0.0017817358769214623 0.0317396281793742 -0.005253300736961102 -0.03131438259443398 0.0159284868118541 -36.67083332561937 -0.027568216350237346 0.0003411213554215151 -0.020081146328269787 -0.005631379242267056 -0.010013664552480147 0.04488984665660632 -0.024733382961475037 0.04002808021565215 -19.755844147348387 -0.010771379082206173 -0.019402006910867835 -0.03451567921916428 0.005591270838524466 0.027170700315718357 0.03512501627666315 0.017901129217305283 -0.016971306055171213 24.09419269278216 -0.025334310174722225 -0.030891184633693013 28.84376000165918 -0.025128678793301704 0.03049187189465132 28.83029374057929 0.008897202594836983 0.015653124219420216 4.663777901030462 1.1120406525685305 13.08978346964176 -73.89576290124194 31.020131047421458 -3.250917243373064 0.5439419075001283 -7.678850899536002 -40.599219709847304 -15.640445587649898 -2.253323032296397 5.248041528447892 -0.46716470475438915 0.08131560108298258 -8.104653609308523 0.008277288028572884 -0.026380316244799546 44.539176216121575 0.012790260504044132 -0.018856017112911724 44.5682908185973 12.469722872171035 0.0010090751916395886 0.02098307476910367 0.02173349514776146 0.037705618469732596 -0.01414833280274961 0.03629656725252211 0.005094955824949552 -0.031074347908908107 11.138882309683755 0.00736222812975676 0.022590338516534338 -0.003920016511387384 0.045843152724242456 -0.0018948857859469972 -0.00010515385619857305 -0.013290026532658995 0.017722727357086424 4.742380441932574 0.001460213911904752 0.011927807056978757 0.0141434335152299 -0.032647230753349056 -0.04053605559461776 -0.0019457411751385267 -0.025156958115855364 0.0013499281527364028 -5.5978888649953715 -0.009644359060301033 -0.012343049320675675 -6.716810591905722 -0.0064830887592085655 -0.029439101655047033 -6.682901879938488 -0.03266259049557294 0.02287155081376575 0.04453477042862538 0.009513799399559337 -0.023314001664149632 8.03816653396926 3.45629774822585 -19.181942424438144 0.010174466085980261 10.378192234827024 0.059257883102755496 -5.610765941659002 -15.635506978706092 3.169206809505041 -0.022826941972472183 0.048971677191314504 -0.001950307443075093 -0.019696620592268517 4.70301519836486 0.04355397194532651 12.488940770600928 -8.21907030355365 6.884254975500487 -0.008385289182929247 46.358405223121956 -0.015381346254701177 -4.331489009814098 -14.773453573874141 -3.8688844843612413 0.030409323200628904 0.009066215895565274 0.0428280713353885 0.03797474092209318 -10.739493631093797 0.01925417001329263 
-0.028147200229186965 -0.004458993426561481 -0.0474581196789022 0.0017395275445066538 -0.0007695366582078226 -0.020548401672628138 -2.990062171832345 -0.31272483811951796 -0.8314156061395632 -0.9573435587603867 3.735404721640982 0.4399673317721118 -1.3155290184245734 -1.8990012355278654 0.0948197506687453 -0.07730417309218726 0.35215425788439814 -0.6462839726882632 0.5080031983849829 11.966179207591491 -0.9950726741640117 0.0831308481387042 -1.2459040210281522 -4.79146497232078 0.7197707279692747 -17.332809198473882 -0.4685144542302072 -5.310369802857119 1.94108116513969 -14.503860308767164 69.83412506214016 32.105510412015626 12.475786984245872 2.1654270455247575 3.310424667326218 90.61741196449843 16.172661525644823 -0.6133118982813213 -3.930770188138073 4.541835055504169 -0.12001802826380444 -1.5828270874287576 0.005847329286355468 -0.010491264980021151 -56.22409074710087 -0.03503168240882401 -0.0022400071458116536 -56.223154966186 -38.735386352300935 0.04155087622014392 0.00146656476239142 0.02400731143010178 0.004082097347005007 -0.007006923137895716 0.001789518458293303 -0.03616874872031575 -0.01609115063467664 -36.71817471255158 -0.012175793228205986 -0.013186163188049929 0.043436734393700216 -0.0038133925970784536 0.02676705371520845 0.038353283019886296 -0.040462993194328875 -0.04879477299234421 -19.718559188109012 0.007118548975562019 -0.03924561294119176 -0.03846760923981418 -0.04814751439092238 -0.0254399754179418 -0.006066400787073801 0.006122737016638012 -0.02515881944670124 24.096557770541946 0.009610380027020428 -0.012733205465097862 28.870492989501404 -0.02673491045237961 0.015152049487279072 28.831276732367485 0.026639214241145844 0.019164576227990743 4.316023196409111 1.0539667472789382 13.034685142739198 -73.603642503314 31.3573995308527 -2.7447710614920062 0.33880099085489584 -7.667409078052359 -40.758954747143044 -15.415927443450805 -1.957215861235043 4.891986801636756 -0.5119533324996056 0.028542909581308694 -8.102085859840278 0.03779739937244201 -0.020227711543076513 44.59586047589495 0.04528897763748201 -0.026026833385678273 44.577189359584736 12.423916487324545 -0.0066093466049992194 0.04666767256410894 0.00956827971188829 0.015286043288285204 0.0006216962781648521 -0.015822797940645044 -0.03954564141691562 0.018825092449202906 11.125960543326322 -0.011994214716845685 -0.009935411417517413 -0.04298384439607404 -0.0008658600190328078 -0.02337551776382163 0.018477136930903332 -0.02519897118489571 0.01759463606858477 4.785334420555994 0.029592165801318113 0.02193676473495401 0.039810868197810566 0.010097877614140672 0.022845490079436825 -0.03759633848210388 0.03009112843184343 0.03524738740520745 -5.569430998999961 -0.031342693993257835 -0.031367385379287155 -6.709056925225749 0.03071586469434698 -0.04281323659595712 -6.742354563394378 -0.020147574567817877 0.014645787711333088 -0.03936839670069723 0.04364417542463062 -0.02753016674296442 8.004801225817051 3.4633290789634192 -19.215885592817042 -0.034033670427880275 10.397128164112873 0.04270501016865515 -5.610784929900076 -15.629380415856957 3.174696118630164 -0.041367773902270075 -0.005454115340147245 -0.005409483427175442 -0.04097226456380047 4.705322136226666 0.011912323656455866 12.459049752036487 -8.24992557261415 6.874620816892782 0.0036723687600950863 46.39008962621436 -0.02297382550449858 -4.374711645358577 -14.726499725102824 -3.8692952904075475 -0.048881189111383436 -0.01104447556131691 -0.03468013624518368 0.0102439055440309 -10.747798792438074 0.0398952129685871 
-0.04514200908996524 -0.017877160062479438 0.03329585407041431 0.03858067126924842 0.02574837619845893 -0.0489453363673031 -2.874538744189621 -0.3934842316341279 -0.8406061267511642 -1.0241547277153968 3.74156032787088 0.45451471730513243 -1.3009064509849253 -1.9195682655090829 0.19940149859188003 0.02577740216233236 0.25880840108658243 -0.589168105972393 0.590502096791872 11.912175389177827 -1.3395071918323558 0.07064973593290542 -1.251454075793118 -5.6767374848193315 0.7471665324619555 -17.352756539704643 -0.47078186669073024 -5.4639753474744195 1.892417993152959 -14.457681638705546 69.0232060815263 33.00972926211719 13.661943115745487 2.0046055526183686 2.852766936945943 90.64404625103874 15.795090371229616 -0.6445622569241143 -3.747893578265196 4.52962734884426 -0.12620764506829776 -1.5947046076614486 0.005566267482527625 0.00583826826808833 -56.237157262474845 0.0356307081479992 0.037431981595184835 -56.26241449184394 -38.77668844632745 -0.006821285829504878 0.024206649248213013 -0.022099334193545095 0.007665117816843577 -0.01339621402235604 0.0195637916813649 -0.007327136461879488 -0.010173893637719955 -36.68955379170859 0.013235154015712595 -0.006237903210836459 0.00032339293131972103 -0.038080292931873753 0.029083421941357362 -0.01884197044609476 0.03869663630334856 0.0025886527943380163 -19.724198825834137 -0.012255425379737478 0.033910929786408334 -0.017477255386326784 0.003723080690095629 -0.048252777203631456 0.01714772680927179 0.013684232992864856 -0.0017401215290631412 24.070621186857657 -0.023252818227084453 -0.03211541922448667 28.896091454840263 -0.019922874619241766 0.009375824092283932 28.845365344302106 -0.046497526179451465 0.019568846715371676 4.197272781521191 1.016358974313795 13.030442363022216 -73.37682156200118 31.498740510432757 -2.366759548038572 0.5704996251258935 -8.064065474297227 -41.021045401865024 -15.180388333836557 -1.7912694801500477 4.667624349276807 -0.5174221548154654 0.049143087345439915 -8.136580209168752 0.03606297099918985 0.03310007643770218 44.56411232695151 -0.012430412984406048 -0.04041165643906273 44.589260639770174 12.446509988517448 -0.009514204334964155 -0.02215560773275435 0.04202150585016125 -0.03144790652399843 -0.04157237887561043 0.026148722675609942 0.004675583510425043 -0.041270544081788804 11.098812462850091 0.016350372404836465 -0.006403605413913989 0.012650702343567377 -0.034846692681745714 0.000903623486843122 0.033864525638019644 -0.0296936700035652 -0.008431316256290705 4.7367976802136695 0.02087566441128042 -0.005574138655045285 -0.005359412074924396 0.011120025565416124 -0.014205398658028367 0.04606650844242896 -0.003238398423673645 -0.044032178163305166 -5.576436633179308 -0.004887020740613357 0.045467553131764656 -6.6744051711893615 -0.012533231334631408 -0.005774703321766039 -6.737750184171324 0.005105276391789414 0.008136026212389326 0.02601357472764252 -0.0039820584655097906 0.04794976585167572 8.046417954448033 3.4687224036764417 -19.254232627354007 0.008301664064536252 10.423263350086163 0.048659078057292623 -5.64410291000318 -15.619939836020743 3.2415983962654527 0.02424434260103959 -0.000846589820540269 -0.013969624110131286 -0.01052527748933306 4.678240255689424 0.013198360687681134 12.458002218253478 -8.255198377495557 6.844187968967026 0.01899336211399486 46.38830202844663 0.034196830302551835 -4.2921974854752 -14.702088868629378 -3.8565501895371246 0.03906340295716128 -0.018348021590543606 -0.0139954062710978 0.013611704290694701 -10.783736023048286 0.010388845726350559 
